<svg aria-hidden="true" style="position: absolute; width: 0; height: 0; overflow: hidden;" version="1.1" xmlns="http://www.w3.org/2000/svg" xmlns:xlink="http://www.w3.org/1999/xlink">
  <defs>
    <symbol id="icon-emergency" viewBox="0 0 32 32">
      <path d="M29.3 28a2.7 2.7 0 0 1-2.6-2.7v-6.7a10.7 10.7 0 1 0-21.3 0v6.6C5.3 26.8 4 28 2.6 28c-.8 0-1.4.6-1.4 1.4s.6 1.3 1.4 1.3h26.6c.8 0 1.4-.6 1.4-1.4S30 28 29.3 28zm-22 0a6 6 0 0 0 .7-2.7v-6.7c0-4.4 3.6-8 8-8s8 3.6 8 8v6.6c0 1 .3 2 .7 2.7zM6.8 8.4c.3.2.7.4 1 .4s.6-.2.9-.4c.5-.6.5-1.4 0-1.9L6.8 4.6c-.5-.5-1.3-.5-1.9 0s-.5 1.4 0 2z"/>
      <path d="M24.8 8.8c.4 0 .7-.2 1-.4l1.8-1.9c.5-.5.5-1.3 0-1.9s-1.3-.5-1.9 0l-1.8 2c-.6.4-.6 1.2 0 1.8.1.2.5.4.9.4zM16.3.7c-.8 0-1.3.6-1.3 1.4v2.6c0 .8.5 1.4 1.3 1.4s1.3-.6 1.3-1.4V2.1c0-.8-.5-1.4-1.3-1.4zM27.6 14.4c0 .8.4 1.3 1 1.3h2.1c.7 0 1.1-.5 1.1-1.3s-.4-1.4-1-1.4h-2.2c-.6 0-1 .6-1 1.4zM.5 14.4c0 .8.4 1.3 1 1.3h2.1c.7 0 1.1-.5 1.1-1.3s-.4-1.4-1-1.4H1.4c-.6 0-1 .6-1 1.4z"/>
    </symbol>
    <symbol id="icon-masterpiece-logo" viewBox="0 0 135 135">
      <path d="M-24.6 310.7c-8.4-10.3-2.8 24.5 2 12.1 4.7-12.4-22.7 9.9-9.6 7.8 13.2-2.1-19.8-14.7-11.4-4.4 8.3 10.3 2.7-24.6-2-12.1-4.7 12.4 22.7-10 9.5-7.8-13 2.1 20 14.7 11.5 4.4z" transform="matrix(4.94642 0 0 4.98978 236.7 -1521.1)" fill="#234b77" stroke="#ccc" stroke-width="1.5" stroke-linecap="round" stroke-linejoin="round"/>
      <g fill="#ccc" stroke-width="3.7">
        <path d="M79.3 71.2v-7.3h-7.4v-7.3h-7.5v7.3H57v7.3h7.4v7.3h7.5v-7.3zm1.8-20c2 0 3.7 1.6 3.7 3.6v25.5c0 2-1.7 3.6-3.7 3.6H55c-2 0-3.7-1.7-3.7-3.6V54.8c0-2 1.8-3.7 3.8-3.7z"/>
      </g>
    </symbol>
    <symbol id="icon-sports" viewBox="0 0 32 32">
      <path fill="#000080" d="M12.2 14.7s-.2.4-.1 1.1l.3 1.2 1.2 3c.4 1 .6 2.2.4 3.4-.2.9-.7 1.7-1.3 2.4l-1.2 1.1c.5.4 1 .8 1.5 1 .4.2.8.4 1.2.4h1.1l1-.5 1.9-1.1a3 3 0 0 1 1-.3c.7-.1 1 .2 1 .2h-1c-.3 0-.5.2-.9.4-.5.3-1 .8-1.8 1.2l-1 .5c-.4.2-.9.2-1.3.2a4 4 0 0 1-1.5-.5L11 26.9c.5-.3.9-.8 1.2-1.2.6-.8 1-1.6 1.2-2.4.2-1.1 0-2.2-.3-3.2-.3-1.1-.8-2-1-3-.2-.4-.3-.9-.3-1.3 0-.8.4-1.1.4-1.1z"/>
      <path fill="#000080" d="M15.2 19a9.8 9.8 0 0 1 1.3 4.4c.2 1 .2 1.6 0 2.3 0 .4-.2.7-.4.8l-.2.1h-.1v-.1l.1-.1.2-.8a9.4 9.4 0 0 0-.3-2.7c-.4-2-.8-3.8-.6-3.8zM17 15.4l.9.5c.4.3.8.9 1.1 1.6v2.8a27.6 27.6 0 0 0 .6 4c.3.9.8 1.2.8 1.3 0 0-.8-.1-1.3-1.2a7 7 0 0 1-.5-2.1l-.1-1.9v-2.8a4 4 0 0 0-.9-1.4l-.6-.8z"/>
      <path fill="#008000" d="M9.3 7c-.6.5-1 .7-1.2 1-.2.4-.4.5-.4 1l-.2 1.2v.2l-.2 1c0 .5-.2 1-.4 1.3l-.8 1c-.8.5-1.4.2-1.4.2s.6-.1 1.1-.6c.3-.2.5-.5.6-.8.2-.4.3-.7.3-1.1l.1-1V10L7 9l.3-1.2.7-.9c.7-1 1.6-1 1.4.1zM11 12l-.5 1.4c-.1.8 0 1.5-.3 1.6-.1 0-.4-.7-.3-1.7.1-.4.3-.8.6-1 .2-.3.4-.3.4-.3zM9.7 14.8c.3.4.2.4-.6.5a5 5 0 0 1-1.6.1c-1.3 0-2.3-.4-2.2-.6 0-.2 1 0 2.2 0H9c.3-.2.5-.4.7 0zM10.7 7c.1 0 .3.5.4 1.2s0 1.2-.1 1.3c-.2 0-.4-.5-.5-1.2s0-1.2.2-1.3zM9.6 6.7L9.5 6c0-.3 0-.8.3-1.2l.4-.5c.3-.3.6-.4.9-.4h.4l-.3.3-.6.5-.2.4-.5 1c0 .3-.2.5-.3.5zM10.9 6.1s-.3-.5.1-1.1a1.5 1.5 0 0 1 .8-.5c.4-.2.9-.1 1-.1h.5c0 .1 0 .3-.3.4-.3 0-.7.1-1 .3h-.1c-.2 0-.3.1-.4.3-.4.3-.5.7-.6.7zM11.8 5.9c0-.1 0-.3.3-.5.3-.1.7-.2 1.2 0 .5 0 .8.4 1 .7v.5l-.4-.3L13 6a2 2 0 0 0-.8 0h-.5z"/>
      <path fill="#a52a2a" d="M24.8 5.5c-.2 0-.7-1-1.9-1.5a2.4 2.4 0 0 0-1.5-.3 3 3 0 0 0-1.4.8C19 5.3 18.7 6 18.6 6c0 0 0-1 1-2a3.3 3.3 0 0 1 1.8-1c.7-.1 1.3 0 1.8.4 1.4.8 1.5 2 1.5 2z"/>
      <path fill="#a52a2a" d="M22.2 4l-.4.7c-.3.4-.6 1-.7 1.7 0 .7.2 1.4.4 2 .1.4.3.7.2.8l-.6-.7a3.7 3.7 0 0 1-.6-2.2c.1-.9.6-1.5 1-2 .3-.3.6-.4.7-.4z"/>
      <path fill="#a52a2a" d="M19.2 6.3l.6-.5a4.2 4.2 0 0 1 2-.4 3 3 0 0 1 1.8.6c.4.3.5.6.5.7l-.7-.3a4 4 0 0 0-1.5-.4h-.2l-1.7.2c-.5.2-.8.2-.8.1z"/>
      <path fill="#a52a2a" d="M23.8 4.9c0 .1-.7.3-1.3.9-.1.1-.3.3-.3.5 0 .3.1.6.3.8.3.7.7 1.1.6 1.2 0 0-.6-.2-1.1-.9-.2-.2-.4-.6-.4-1v-.2c0-.4.3-.7.6-.9.8-.6 1.6-.5 1.6-.4zM19.6 8.7c.2-.2.8.4 1.6.7h1.3l.6.1c0 .1-.7.8-2 .5-1.2-.4-1.5-1.3-1.5-1.3zM19.5 5.2s.2-.4.7 0l.2.6v.1l-.1 1-.3.3-.1-.4V6v-.2l-.1-.3-.3-.3z"/>
      <path fill="#fa8072" d="M11.1 12.7c.1-.1.5 0 1 .4s.6.8.4 1c0 0-.5-.1-.9-.5s-.6-.8-.5-1zM10.5 9.8v.3c-.2.1-.3.3-.3.4l.1.1.6.3c.4.1.7.3.7.4l-.8.1a2 2 0 0 1-.8-.2.9.9 0 0 1-.3-.3v-.5c0-.4.3-.5.5-.6h.3zM11.8 6.4s.4 0 .9.3 1.2.8 1.7 1.7c.2.2.3.5.3.8.3 1.2 0 2.4-.3 3l-1.2.3s.3-.3.9-.5c.2-.7.4-1.7 0-2.7 0-.2 0-.4-.2-.6-.4-.7-1-1.3-1.4-1.6-.5-.4-.8-.6-.7-.7zM24.8 10.1c0 .1-1.5 2-3.8 4.5l-.7.5a6 6 0 0 1-1.9.6H16c-.4.3-.8.4-1.2.4l-1-.1 1-.2c.3 0 .7-.2 1-.5.7 0 1.8 0 2.7-.2a5.7 5.7 0 0 0 2.2-1c2.2-2.3 4-4 4.2-4z"/>
      <path fill="#fa8072" d="M23.8 9.6L21.9 11a8 8 0 0 0-1.8 2.3 358 358 0 0 1-6.5.6c-.4.7-.6 1.2-.5 1.8 0 .5 0 .9.2 1.4.4.4.7.8 1.1.9h.3l.3-.1.5-.9.5-.9s0 .4-.3 1c0 .3-.2.7-.4 1a1 1 0 0 1-.4.3 1 1 0 0 1-.6 0c-.6-.2-1-.6-1.5-1.1l-.3-1.5c0-.8.3-1.6.8-2.3a516.5 516.5 0 0 1 6.5-.6c.5-1 1.2-1.7 1.9-2.2 1.2-.9 2-1.2 2-1.2z"/>
      <path fill="#fa8072" d="M13.8 12.8c0-.2.3-.2.5 0s.4.3.3.5H14c-.2-.1-.3-.4-.2-.5zM24 9c-.2 0-.4-.6-.7-1.7 0 0 0-.2.2-.2h.2l.2.2.2.4c0-.4.2-1.3.7-1.8.4-.2 0 1 0 1.5 0-.6 0-1.6.8-1.8.1.4-.3 1.5-.4 2 .2-.6.5-1.4.9-1.6 0 .7-.3 1.4-.5 2 .3-.5.6-1 1-.7.3.1-.3 1-.5 1.4-.6 1-1.2 1.2-1.2 1.1 0 0 .4-.4.8-1.3.2-.2.4-.8.8-1.1-.4.1-.7.3-.9.6.2-.6.4-1.2.4-1.8-.4.3-.6.8-.8 1.3a6.4 6.4 0 0 0 .3-1.7c-.4.4-.6 1-.7 1.6V6.1c-.3.5-.5 1.4-.7 1.9l-.5-.5h-.1l.2-.2a6 6 0 0 1 .2 1.7zM19.2 12.6c-.3.5-.2-.3.4-3 0-.4 0-1-.2-1.5l.7-.7c-.4 0-.7.4-1.2.7a2 2 0 0 1-.2-1.6l-.2.4v1c-.2-.4-.3-.7-.3-1.1l-.2.5c.2.7.3 1.4.7 2 .1 1-.3 2-.5 2.6-.3.6-.5.8-.6.8l.2-1c.2-.4.8-1.3.6-2.2L18 8.2c-.4-1.3-.2-2 .3-1.7l.1 1.4c0-.4 0-1.6.3-1.6.1.5 0 1 .4 1.5.3-.2.7-1 1.3-.5l-.6.9c-.2.6.1.5.2 1.1 0 .5-.2 1.4-.8 3.3z"/>
    </symbol>
    <symbol id="icon-adhd" viewBox="0 0 32 32">
      <path fill="#a52a2a" d="M10.8 15.8s-1.2.2-2.3-.8c-.4-.3-.8-1-1-1.7-.3-1.3.5-2.5 1.5-3.2-.3-.8 0-2.4 1.2-3.4.6-.6 2-1.2 3-1.2s2.1.3 3 .8c.6.3 1 .9 1.5 1.6.3.2.5.7.8 1 .8 1.1 2 2.1 3.3 2.7 1.2.7 2.5 1.8 3.1 3 .4.5.6 1 .8 1.6v2.2c0 .9-.5 1.5-.8 2-.8 1.7-1.9 2.3-1.8 2.3l1.1-2.6c.3-.5.3-1.1.3-1.9l-.1-1.6-.6-1.5c-.8-1-1.5-1.8-2.6-2.7-1-.6-2.2-1.4-3.1-3.1a26.8 26.8 0 0 0-2.6-2c-.8-.5-1.4-.3-2.2-.3-2 0-3.2 2.1-3.9 3.6l-1 1.4c0 .7.1 2.1.5 2.6 1 1 1.9 1.2 1.9 1.2z"/>
      <path fill="#fa8072" d="M13.3 18.4l-.5 1.6c-.1.3-.2.8 0 1.2v.3l.7.8c1 .8 1.9 1.1 1.8 1.3 0 0-1 0-2.2-.9a2.7 2.7 0 0 1-1-1.3c0-.6 0-1.2.2-1.6.3-1 .9-1.4 1-1.4z"/>
      <path fill="#a52a2a" d="M9.4 11.4l.7.5c.1.2.2.2.6.3a6.4 6.4 0 0 0 2.9.2l2-.2c1.6-.2 2.8-.2 2.8 0l-2.7.5c-.6.1-1.3.4-2 .4l-.9.1c-.9 0-1.5 0-2.2-.3-.4 0-.7-.3-1-.5-.4-.6-.2-1-.2-1z"/>
      <path fill="#fa8072" d="M15.2 17.7s.5 0 .8.6c.1.2.2.5.1.7 0 .3-.2.6-.3.8l-.4.7a7.4 7.4 0 0 0-.3.7v.5c0 .3.1.5.3.7.4.5 1 .8 1 .9-.1 0-.7 0-1.4-.6-.2-.2-.5-.5-.6-.8l.1-1a3 3 0 0 1 .4-.7l.4-.7.3-.6v-.5c0-.4-.4-.6-.4-.7z"/>
      <path fill="#ef6888" d="M9.6 13.7c.2.8.6.9 1 1.1.5.4.5 1.3.6 1.8h1c-.1.2-.2.3-.1.5.2.2.4 0 .6 0l-.4-.1v-.5c-.2-.2-.5 0-.8-.1 0-.4-.4-1.6-.7-1.8-.4-.2-1-.3-1.2-.9zM11.6 15c-.1-.2.4 0 .6-.3s.4-.6.5-.5c.2.4-.4 1-.8 1-.2 0-.2-.2-.3-.3z"/>
      <path fill="#fa8072" d="M17.9 16.9c.1-.1.3 0 .4 0s.2.4.1.4l-.2-.2-.3-.2z"/>
      <path fill="#fa8072" d="M10 22.3s-.2-1.4 1-3.2a9.4 9.4 0 0 1 3.3-3.2c.2-.8.4-1.9 1-2.7.3-.4.7-.8 1.2-1 .6-.3 1.2-.3 1.9-.3l.4.2a4 4 0 0 1 1.6 1c.6.9.7 1.9.5 2.7a4 4 0 0 1-1.6 2.2l-2 1.3c-.6 0-1.2-.3-1.6-.7l-.3-.8c0-.5 0-.9.2-1.2v-1c0-.2.2-.3.4-.3.4-.1.6.2.6.2H16l-.2.3c-.1.2 0 .4 0 .8-.1.3-.2.7-.1 1.1l.3.6c.2.3.6.5 1.1.6l.3-.3c.3.3.2-.2.1-.2h.5V18h.5c0-.6.4-.7.8-1 .6-.4.7-.5 1-1.2 0-.8-.1-1.6-.5-2.3a3 3 0 0 0-1.2-.9l-.5-.2c-.5 0-1 0-1.5.2-.4.2-.7.5-.9.8-.5.8-.8 1.8-1 2.7-1.7 1-2.8 2-3.5 3-1.1 1.7-1.3 3-1.3 3z"/>
      <path fill="#008000" d="M10.8 18.5s-1.2 1.4-2.2 4c-.2.4-.3.9-.3 1.4 0 1.3 1 1.3 2 1.4h2.2c3.4-.6 6-2 8.8-4 1.5-1.3 2.2-3.6.3-3.8-.7 0-1.3.2-1.8.5-2.6 1.3-3.9 3-4 2.9.3.2 1-1.8 3.8-3.3.5-.3 1.3-.7 2-.6 2 .3 2.7.7 2.1 3-.6 1.5-1.5 2-2 2.5-1 .9-2.8 1.7-4.2 2.3-2.6.8-9.9 3.4-9.7-1 0-.5.2-1 .4-1.5 1.2-2.7 2.7-3.7 2.6-3.8z"/>
    </symbol>
    <symbol id="icon-sameday" viewBox="0 0 32 32">
      <path fill="#ff2a2a" d="M4.7 12a.5.5 0 0 0-.2.9c3 1.3 3.9 2.7 4 3.7A2 2 0 0 1 7 16c-.5-.6-1-1.4-1.7-2H5a.5.5 0 0 0-.3.8c.5.4 1 1.2 1.6 1.9s1.5 1.2 2.9 1c.2 0 .4-.2.4-.4.1-1.7-1.1-3.6-4.6-5.2h-.3zM14.7 22a.5.5 0 0 0 0 1c.7.2 1.8.9 2.6 1.7a4 4 0 0 1 1.2 2 1 1 0 0 1-.4 0c-.3 0-.6-.3-.9-.5-.6-.5-1.3-1.4-2-2.3a.5.5 0 1 0-.8.7c.7.8 1.4 1.7 2.2 2.4l1.2.6h1.4l.3-.4C19.7 26 19 25 18 24a7.4 7.4 0 0 0-3.3-2z"/>
      <path fill="#ff2a2a" d="M9.1 16.6c-.2 0-.3.1-.4.3-.4.7-.9 1.2-2 1.3a.5.5 0 1 0 .1 1c1.5-.2 2.2-1 2.7-1.8l.1-.3c0-.3-.2-.5-.5-.5zM14.8 22l-.4.1a4.5 4.5 0 0 0-1.8 2.8.5.5 0 0 0 1 .1c.2-1 .7-1.5 1.5-2.1a.5.5 0 0 0-.3-.9z"/>
      <path fill="#ff2a2a" d="M7.4 18.2a.5.5 0 0 0-.4.7c1 2.4 2.4 4.7 6 5.9h.2a.5.5 0 0 0 .1-1c-3.3-1-4.4-3-5.4-5.3-.1-.2-.3-.3-.5-.3z"/>
      <path fill="#ff2a2a" d="M4.7 12l-.3.1c-.7.8-1.5 1.7-1.9 3.2a.5.5 0 0 0 0 .2 14.6 14.6 0 0 0 4.6 9c2.7 2.3 5.5 4.8 9.2 4.9 1.3-.1 2.2-1.1 3-2l.2-.3a.5.5 0 0 0-.9-.4c-.8.9-1.6 1.6-2.4 1.7-3.2-.1-5.8-2.3-8.4-4.7a13.5 13.5 0 0 1-4.3-8.2c.3-1.3 1-2 1.6-2.7l.2-.4c0-.2-.3-.5-.5-.5zM17.5 2a15 15 0 0 0-3.4.4A13 13 0 0 0 4.9 11a.5.5 0 0 0 1 .1c1.5-3.9 4-6.7 8.4-7.9 4.5-1 8 .2 10.9 3 3.3 4 4.6 8 2.8 13-1.6 4-4.7 5-7.6 6.8a.5.5 0 1 0 .5.8c2.8-1.7 6.3-2.8 8-7.3 2-5.2.6-9.9-3-14A12.3 12.3 0 0 0 17.5 2z"/>
      <path fill="#ff2a2a" d="M15 8.4c-.3 0-.6.3-.6.5v3.3h-3c-.3 0-.5.2-.5.5v4.2c0 .3.2.5.5.5h3.2v3.2c0 .2.2.5.5.5h4c.2 0 .5-.3.5-.5v-3.3H23c.2 0 .5-.2.5-.5v-4.1c0-.3-.3-.5-.5-.5h-3.5V8.9c0-.2-.2-.5-.5-.5zm.4 1h3.2v3.3c0 .3.2.5.5.5h3.5v3.1H19c-.3 0-.5.2-.5.5v3.3h-3v-3.2c0-.2-.3-.5-.5-.5h-3.2v-3.2h3c.3 0 .5-.2.5-.5v-.2z"/>
    </symbol>
    <symbol id="icon-checkexamen" viewBox="0 0 32 32">
      <path fill="#008000" d="M19.6 16a98 98 0 0 1-1.2-1l-2.8 1c0 .3-.1.7-.3 1l-.4.3c-.2.2-.5.2-.7.3l.6-.4.2-.3.3-1.2 3.2-1.5a90 90 0 0 1 3 2.6c1.5-1 2.8-1.7 4-2.2-1 .9-2.4 1.8-4.1 2.9L19.6 16z"/>
      <path fill="#ff8080" d="M17.7 4.8l-1.1-1c-.7-.3-1.5-.6-2.2-.7-1.5-.2-3 .1-4.3.9a5 5 0 0 0-1.6 1.4c-.4.6-.7 1.3-.7 2-.1.8 0 1.6.3 2.4.5 1 1.1 1.9 1.7 2.6-.5-.8-1-1.7-1.3-2.8-.2-.7-.3-1.4-.1-2.1 0-.6.3-1.2.7-1.7a5.9 5.9 0 0 1 6.9-1 4.8 4.8 0 0 1 1.5 1.3c.3.4.4 1 .4 1.5l-.1 1.7c.3 1 .2 2.1-.1 3-.2.9-.6 1.6-1 2.3a5 5 0 0 1-1.9.3c-.5 0-1-.2-1.4-.3-1-.4-1.7-1-2.5-1.5.7.5 1.4 1.3 2.3 1.8.5.3 1 .4 1.6.5A6 6 0 0 0 17 15a8 8 0 0 0 1.5-2.4c.4-1 .6-2.3.3-3.5l.2-1.6c0-.7-.2-1.5-.7-2l-.6-.8z"/>
      <path fill="#ff8080" d="M6.3 21.1c-.3-.3-.5-.7-.6-1.2-.2-.7-.2-1.4-.2-2.1 0-.8.1-1.5.3-2.2a4 4 0 0 1 .6-1.5c.5-.5 1-1 1.5-1.3.6-.3 1.3-.5 2-.4-.7-.2-1.4-.1-2.1.2A6 6 0 0 0 6 13.8c-.4.5-.7 1-.9 1.7A9.3 9.3 0 0 0 5 20a3.5 3.5 0 0 0 .9 1.7l.7 1.9c.2.6.5 1.3 1 1.8L9 27c.4.4.8.8 1.4 1 .6.3 1.3.5 2 .6l1.7-.1c-.5 0-1 0-1.7-.2-.6 0-1.2-.3-1.8-.8-.5-.1-.9-.5-1.2-.9l-1.2-1.5a5 5 0 0 1-.9-1.7l-.7-2-.2-.3z"/>
      <path fill="#ff8080" d="M10.2 22.4l-.8-1.6c.1-2-.1-4.3-.2-5.6V21l.7 1.6.4 1c.2.5.4 1 .7 1.3.3.3.7.5 1 .6.5 0 .9.5 1.3.7.3.3.8.4 1.2.4.4 0 .7 0 1 .2-.2-.2-.6-.2-1-.3-.4 0-.8-.1-1.1-.4-.3-.3-.7-.7-1.3-.9-.3 0-.6-.3-.8-.5l-.7-1.1-.4-1zM17.8 24.1v-1l-.3-1.4c.3-.8.2-1.9.2-2.5-.1.6-.2 1.7-.5 2.5l.2 1.4v1c0 1.1-.3 2.2-.4 3.1l.8.5.4.9-.3-1-.7-.5.6-3zM17.5 28.2c0-.2-.2-.4-.3-.5l.2.5.3.5c0-.2 0-.4-.2-.5zM16.5 27.8l.5 1a5 5 0 0 0-.6-1v0zM15.5 27.7l.2 1c0-.2 0-.6-.2-1v-.1l-.4 1.1c.2-.2.3-.6.4-1zM14.4 27.8l.2 1-.1-1.1h-.1l-.9.9.9-.8z"/>
      <path fill="#ff8080" d="M14.6 22.5V22l-.1-1v-.4l.1-.7c.1-.4.4-.7.6-1-.3.2-.6.5-.8 1l-.2.6v2l.3 3.8c.2-1 .2-2.3.1-3.8z"/>
      <path fill="#008000" d="M18 19h-.3l-3.5-.3c.8.3 2.1.5 3.5.7h4.1c-1-.2-2.4-.3-3.8-.3zM24.2 20.5c-1.6.3-2.8.5-3.8.9.9 0 2.4 0 3.8-.3 1.6-.3 2.9-.7 3.8-1.2l-3.8.6z"/>
      <path fill="#008000" d="M21.9 17.2l.5 1-.8 2-.7.6-1.2.8c-.5 0-.6-.2-1-.5v-1l.7-.7h.2l-.6.6v1c0 .2.3.3.5.4.5 0 1-.5 1.4-.8l.5-.6.7-1.7v-.5zM15 18l.8-.6.4-.7.9-.1.6.1-.2.8-.4.3-.7.2h-1.2z"/>
      <path fill="#800000" d="M14 17.5l-.3-.5-.7-.1h-.5l-.3.4-.2.2-.1.5v.8l.3.5.5.3h1l.4-.3.2-.4-.3.2-.4.4h-1l-.3-.3-.2-.3-.1-.3V18l.3-.5v-.3l.5-.3.8.2z"/>
      <path fill="#800000" d="M13.7 18l-.3-.2H12.8l-.2.4v.3l.3.3.3.1.3-.1.2-.3v-.2z"/>
    </symbol>
    <symbol id="icon-prenatal" viewBox="0 0 32 32">
      <path fill="#782121" d="M9.8 23.4v-1c0-1.4.4-2.9.8-4.3l-.2-2.2c0-.6 0-1.1.3-1.6l2.3-1.8c2-2.1 2.1-2.8 1.9-3.9.2 0-1.4-.5-.6 1 .3.8-1 1.8-1.8 2.6l-2.3 1.7c-.4.6-.5 1.3-.6 2 0 .7 0 1.4.2 2.1a13.4 13.4 0 0 0-1 5.5l.7 2c.4.8 1 1.5 1.8 2 .7.5 1.5 1 2.3 1.3l3.6.7c.5 0 1 .1 1.6 0 .5 0 1 0 1.3-.4l2.2-2.6-2.5 2.4-1 .2-1.5-.2-3.5-.8-2-1.3c-.6-.5-1.1-1-1.5-1.7l-.5-1.7z"/>
      <path fill="#fa8072" d="M13.8 18.9a11.5 11.5 0 0 0 .4-3.2c0-.5-.1-.9-.3-1.2-.3-.4-.6-.6-.9-.7.3.2.5.5.6.8v1c0 1-.3 1.8-.6 2.8v.3l-.8 2.8-.1 1.4.1 1.1.2-1 .4-1.3 1-2.8z"/>
      <path fill="#fa8072" d="M14.5 26l-.4-.4c-.6-.5-1.2-1-1.8-1.3-.2-.2-.5-.3-.7-.3-.2 0-.4.2-.5.3 0-.2.2-.3.5-.4l.8.1a7.8 7.8 0 0 1 2.3 1.6l1.7 1.4 1 .7c.2.1.4.3.7.3a2 2 0 0 1-.9-.2l-1-.5-1.7-1.4zM18 19.4c.1 0 1.5.2 3 1.7a5.5 5.5 0 0 1 1.4 2.4c.2 1 0 1.9-.3 2.6C21.2 27.9 20 28 20 28c-.1-.2.9-1 1.4-2.3a3.2 3.2 0 0 0 0-2.2 6 6 0 0 0-1-1.8c-1.2-1.3-2.4-2-2.3-2.3z"/>
      <path fill="#f00" d="M15.6 10.7c.1 0-.5 1.2-.5 2.1 0 .4.1.8.4 1.1.2.4.5.7.9 1l.8.5.4.3 1.1.7c.3.3.6.5.8 1a1.2 1.2 0 0 1-.1 1c-.6 1-1.4 1-1.4 1s.6-.4 1-1.2v-.4-.3a2 2 0 0 0-.6-.6l-1.1-.7a24.4 24.4 0 0 1-1.3-.9l-1-1c-.3-.5-.4-1-.3-1.5 0-1.2 1-2 1-2z"/>
      <path fill="#fa8072" d="M14.6 9.5l1 1.2c.3.3.7.6 1.1.7.3 0 .7-.1 1-.4.2 0 .3-.2.4-.4l.7-1.4c.7-.9 1-1.5 1-2v-.7l.1-.3.2.3.1.6c0 .7-.2 1.5-.8 2.4-.2.5-.4 1-.8 1.5l-.5.5c-.4.4-1 .5-1.5.4-.6-.1-1-.5-1.3-.9-.7-.8-.8-1.5-.7-1.5z"/>
      <path fill="#008b8b" d="M20 6.2s.2.3-.3.9l-.9.6c-.7.5-1.5.7-2.6 1H16l-2.3.8-1 .6c-.5.4-.6.8-.7.7 0 0-.2-.5.3-1l1-1 2.5-.9h.3l2.6-.8.8-.4.5-.5z"/>
      <path fill="#008b8b" d="M15.1 5.4c0-.1.3-.9 1.4-1.7.5-.3 1.2-.7 2-.8.3 0 .7 0 1 .2.3.1.6.3.8.6.6.9.5 1.9.4 2.5.1 0 .3.1.5.4v.7c0 .4-.3.8-.4 1v.5c.2.3 0 .3 0 .3l-.2-.1-.2-.2a.8.8 0 0 1-.2-.7l.2-1s0-.1 0 0c0-.2-.2-.3-.4-.5 0-.7 0-1.7-.5-2.2A.9.9 0 0 0 19 4l-.5-.1c-.6 0-1.2.2-1.6.5-1.1.5-1.8 1-1.9.9zM11.1 9.8l-.4 1c-.2.5-.9 1.1-1 1.8l-.1.6-.1 2.9-.1 1.2c-.1 0-.3-.5-.4-1.2a10.8 10.8 0 0 1 0-3.6 8 8 0 0 1 1-2.3c.7-.9 1.1-.5 1.1-.4z"/>
      <path fill="#008b8b" d="M11.8 4c.3-.5.7-.9 1.2-1.2a5 5 0 0 1 3.7-1c1.4.3 2.3 1.2 2.7 2-.8-.5-1.8-.8-2.8-.7-.9.1-1.7.5-2.5 1.1l-.8 1c-.5.5-.8 1.2-1 1.8a17 17 0 0 0-1 5.3 8.3 8.3 0 0 1-.7-5.8c.2-.9.6-1.7 1.2-2.5z"/>
    </symbol>
    <symbol id="icon-breastfeeding" viewBox="0 0 32 32">
      <path fill="#f60" d="M15.8 11.3c1 0 2.2 0 3.2-.2.6-.2 1-.4 1.4-.8.5-.4.7-1 .7-1.4a3 3 0 0 1-1 1l-1.3.3h-4.7l-1.6.3c-.5.3-.9.6-1.1 1-.4.6-.4 1.3-.3 1.7.1-.4.4-1 .8-1.3l1-.5 1.2-.2h1.6z"/>
      <path fill="#f60" d="M10.3 8.8c1-.5 2.2-.8 3.3-1 1.7-.1 3.4 0 4.6.1-1.2.1-2.9.2-4.6.5a10.9 10.9 0 0 0-3.4 1.3c-.9.5-1.5 1.3-1.7 2.2-.4 1.4 0 3 .4 4-.6-.9-1.2-2.4-1-4a4.2 4.2 0 0 1 2.4-3z"/>
      <path fill="#000080" d="M10.1 20.1a10.4 10.4 0 0 1 1.5-6l.4-.3h.2l.3.3.4 1.2c.4 2.2.3 4.5.1 6.2.5-1.7.9-4 .6-6.4 0-.4-.1-.9-.3-1.3-.1-.3-.3-.6-.7-.8-.3-.2-.6-.2-1 0-.3 0-.5.3-.7.5-.6.6-1 1.4-1.2 2.2a11.3 11.3 0 0 0-.7 4.5c0 .6.1 1.3.3 1.9.3 1 1 2.1 1.8 2.9 1 1 2.3 1.4 3.6 1.6 2 .3 4-.1 5.6-.5a57.2 57.2 0 0 0 .5-.8l-.7.5c-1.6.2-3.5.3-5.3 0a6.2 6.2 0 0 1-3-1.6 5.5 5.5 0 0 1-1.4-2.4c-.2-.6-.3-1.1-.3-1.7z"/>
      <path fill="#800000" d="M15.6 12.6zM22.2 8.2L21.7 7a5.6 5.6 0 0 0-3-2.5c-.6-.3-1.3-.3-1.9-.2-.7.2-1.2.6-1.6 1-.5.8-.7 1.7-.8 2.4.2-.7.5-1.5 1-2.1.4-.4 1-.7 1.5-.8.5 0 1 0 1.6.2l1.4 1a4.1 4.1 0 0 1 1.5 2.3l.1.7c0 .5-.1 1-.4 1.5-.4.7-1 1.1-1.7 1.5-.6.3-.9.8-1.2 1.1-.3.5-.7 1-1.1 1.1h-.5c-.2 0-.3-.3-.4-.5a4.9 4.9 0 0 1-.6-1v.4l.4.7c.1.3.2.5.5.7.2.1.4.2.7 0 .6-.1 1-.6 1.4-1l1-1c.8-.3 1.5-.8 2-1.6a3.4 3.4 0 0 0 .6-2.7zM22.7 14.8a4 4 0 0 0-2.5 1.2c-.5.5-.8 1.2-1 1.8-.2 1 0 1.8.1 2.6l.3.3h.4c.2 0 .5 0 .6.3 0-.3-.3-.4-.6-.5h-.3v-.2c-.1-.7-.1-1.6.1-2.3.2-.6.5-1 1-1.5a3.4 3.4 0 0 1 2.6-.8c.4 0 .8.2 1.2.4.3.2.5.6.6 1a3 3 0 0 1 0 1.6c-.3 1-.9 1.8-1.3 2.5a7 7 0 0 0 1.7-2.3c.3-.6.5-1.3.3-2 0-.5-.4-1-.8-1.4-.5-.4-1-.6-1.6-.7h-.8zM18.9 24.6c-.2 0-.3-.2-.4-.3-.6-.4-1-1-1.3-1.6l-1.2-2 1 2c.3.7.7 1.3 1.3 1.8a2.4 2.4 0 0 0 1 .4h1a6.7 6.7 0 0 0 2.9-2c-.7.5-1.8 1.5-3 1.8h-1l-.3-.1z"/>
      <path fill="#800000" d="M18.4 21.5c.4-.4.8-1 .9-1.7.1-.6 0-1.2-.3-1.7-.4-.5-1-1-1.4-1.2-.7-.4-1.4-.7-2-.8.6.2 1.2.5 1.9 1 .4.3.8.7 1.1 1.2.2.5.3 1 .2 1.4a3.2 3.2 0 0 1-1 1.7v.2l.1.2.2.2.6.5.5.5.1.1V23h.2l.1.2.2-.2 1-1c.4-.3.8-.6 1.3-.7h.6l.5.5a1 1 0 0 0-.5-.6h-.6c-.6 0-1 .2-1.5.5a6.2 6.2 0 0 0-1.3 1.2l-.1.1v.2l.1.2h.2c.2-.1.3-.3.3-.4l-.2-.3-.6-.5-.6-.5-.1-.2v.2l.1-.2zM16.3 20.3a1 1 0 0 0-.2-.3l.1.3.3.3s0-.2-.2-.3zM16.8 20.1a1 1 0 0 0-.2-.3l.1.4.2.3V20zM16.6 20.2a1 1 0 0 0-.3-.3l.2.4c0 .2.1.2.2.3l-.1-.4zM16.2 20.5a1 1 0 0 0-.2-.3l.1.4.2.3v-.4zM17.2 20.2a1 1 0 0 0-.2-.3v.4c0 .2.2.2.3.3l-.1-.4z"/>
      <path fill="#800000" d="M17.7 21.1a3 3 0 0 1 0-1c-.2 0-.3.3-.3.7 0 .2 0 .4.2.7l.3.3h.1v.1l.2-.4-.1.4-.1-.2-.2-.4V21z"/>
    </symbol>
    <symbol id="icon-ios-telephone" viewBox="0 0 32 32">
      <path d="M26 21c-1-1-3.5-2.7-5.2-2.7-.4 0-.8 0-1 .2-.9.6-1.5 1-1.8 1-.2 0-.4-.2-.8-.5l-2-1.8v-.1l-.3-.2-1.6-1.9-.9-1.2c0-.2.2-.6.8-1.4.7-.9.7-2 0-3.3-.4-1-1.2-2-2-2.9C10.6 5.3 9.9 5 9.1 5c-.9 0-1.6.5-2 .7H7A4 4 0 0 0 5.2 8C5 9 4.7 10.5 6.4 13.6a29.9 29.9 0 0 0 9.8 10.8c2.2 1.7 4.3 2.6 5.8 2.6 1.4 0 2.5 0 4-1.9 1.6-2 1-3.1 0-4.1z"/>
    </symbol>
    <symbol id="icon-email" viewBox="0 0 32 32">
      <path d="M4.2 9.3L14.8 15c.4.2.7.2 1.3.2.5 0 .9 0 1.2-.2a1129 1129 0 0 1 11.4-6.4c.2-.5 0-.7-.7-.7H4.1c-.7 0-.9.2-.7.7.1.2.5.5.8.6z"/>
      <path d="M28.5 9.6c-.5.2-5.1 3.5-8.2 5.5l5.2 5.8v.3h-.3L19 15.8 17.3 17l-1.2.3c-.4 0-.8 0-1.3-.3L13 16 6.9 21l-.3.1V21l5.2-5.8c-3-2-7.7-5.3-8.2-5.5-.6-.3-.6 0-.6.3v12.8c0 .6.9 1.3 1.5 1.3h23.2c.6 0 1.3-.7 1.3-1.3V9.9c0-.3 0-.6-.5-.3z"/>
    </symbol>
    <symbol id="icon-quote-left" viewBox="0 0 26 28">
      <path d="M12 15v6a3 3 0 0 1-3 3H3a3 3 0 0 1-3-3V10a8 8 0 0 1 8-8h1c.5 0 1 .5 1 1v2c0 .5-.5 1-1 1H8a4 4 0 0 0-4 4v.5c0 .8.7 1.5 1.5 1.5H9a3 3 0 0 1 3 3zm14 0v6a3 3 0 0 1-3 3h-6a3 3 0 0 1-3-3V10a8 8 0 0 1 8-8h1c.5 0 1 .5 1 1v2c0 .5-.5 1-1 1h-1a4 4 0 0 0-4 4v.5c0 .8.7 1.5 1.5 1.5H23a3 3 0 0 1 3 3z"/>
    </symbol>
    <symbol id="icon-warning" viewBox="0 0 20 20">
      <path d="M19.5 18L10.6 1.3a.7.7 0 0 0-1.2 0L.4 18l.1.7c.1.2.3.3.6.3h17.8c.3 0 .5-.1.6-.3V18zM11 17H9v-2h2v2zm0-3.5H9V7h2v6.5z"/>
    </symbol>
    <symbol id="icon-location-pin" viewBox="0 0 20 20">
      <path d="M10 2a5 5 0 0 0-5 5c0 4.8 5 11 5 11s5-6.2 5-11a5 5 0 0 0-5-5zm0 7.8a2.7 2.7 0 1 1 0-5.4 2.7 2.7 0 0 1 0 5.4z"/>
    </symbol>
    <symbol id="icon-old-phone" viewBox="0 0 20 20">
      <path d="M17.3 12.3c-.1-.7-.7-1.2-1.3-1.4-2.6-.6-3.2-2-3.4-3.7C12.2 7 11.4 7 10 7l-2.7.2c0 1.6-.7 3.1-3.3 3.7-.6.2-1.2.7-1.3 1.4l-.5 3.4a2 2 0 0 0 2 2.3h11.6a2 2 0 0 0 2-2.3l-.5-3.4zM10 15.5a2.5 2.5 0 0 1 0-5 2.5 2.5 0 0 1 0 5zM20 6c0-1.5-3.9-4-10-4S0 4.5 0 6s0 3.5 2.6 3.1c3-.4 2.7-1.4 2.7-2.8C5.3 5.3 7.7 5 10 5s4.7.2 4.7 1.3c0 1.4-.2 2.4 2.7 2.8C20 9.5 20 7.5 20 6z"/>
    </symbol>
    <symbol id="icon-facebook-with-circle" viewBox="0 0 20 20">
      <path d="M10 .4a9.6 9.6 0 1 0 0 19.2A9.6 9.6 0 0 0 10 .4zM12.3 7h-1.5c-.1 0-.3.3-.3.6v1h1.8l-.3 1.5h-1.5v4.4H8.8v-4.4H7.2V8.6h1.6v-.9c0-1.2.8-2.2 2-2.2h1.5V7z"/>
    </symbol>
    <symbol id="icon-google-with-circle" viewBox="0 0 20 20">
      <path d="M10 .4a9.6 9.6 0 1 0 0 19.2A9.6 9.6 0 0 0 10 .4zm-.6 13.7c-.6.3-1.2.3-1.5.3-.5 0-2.4 0-2.4-1.8s2.1-2 2.7-2c-.3-.4-.2-1-.2-1a2.3 2.3 0 0 1-1.3-.2C6.2 9 6 8.5 6 7.8c0-2.2 2.3-2.2 2.3-2.2h2.3c0 .3-.4.3-.8.4h-.3c.5.3.6.8.6 1.6a2 2 0 0 1-.6 1.6c-.3.2-.4.3-.4.5s.2.4.5.6c.4.4 1 1 1 1.9 0 .9-.4 1.5-1.2 2zm5.1-4.1H13v1.5h-1V10h-1.5V9H12V7.5h1V9h1.5v1zm-6.3 1.2a2 2 0 0 0-1.3.4c-.3.3-.4.6-.4 1 0 .7.8 1 1.7 1 1 0 1.5-.6 1.5-1.3 0-.6-.6-1.1-1.5-1.1zm.9-4c-.2-.8-.6-1-1.2-1h-.2c-.3 0-.5.3-.6.6V8c.1.7.6 1.2 1.1 1.2h.2c.6-.2 1-1 .7-1.8z"/>
    </symbol>
    <symbol id="icon-instagram-with-circle" viewBox="0 0 20 20">
      <path d="M13 10a3 3 0 1 1-6-.5H6v4c0 .3.2.5.5.5h7c.3 0 .5-.2.5-.5v-4h-1v.5zm-3 2a2 2 0 1 0 0-4 2 2 0 0 0 0 4zm2.4-4.1h1.2c.2 0 .3-.1.3-.3V6.4c0-.2-.1-.3-.3-.3h-1.2c-.2 0-.3.1-.3.3v1.2c0 .2.1.3.3.3zM10 .4a9.6 9.6 0 1 0 0 19.2A9.6 9.6 0 0 0 10 .4zm5 13.5c0 .6-.5 1.1-1.1 1.1H6c-.6 0-1.1-.5-1.1-1.1V6C5 5.5 5.5 5 6.1 5H14c.6 0 1.1.5 1.1 1.1V14z"/>
    </symbol>
    <symbol id="icon-twitter-with-circle" viewBox="0 0 20 20">
      <path d="M10 .4a9.6 9.6 0 1 0 0 19.2A9.6 9.6 0 0 0 10 .4zm3.9 7.9v.2A5.3 5.3 0 0 1 5.6 13h.5c.9 0 1.7-.2 2.3-.7-.8 0-1.5-.6-1.7-1.4a2 2 0 0 0 .8 0C6.7 10.7 6 10 6 9.1l.9.2a1.9 1.9 0 0 1-.6-2.6c1 1.2 2.3 2 3.9 2v-.4A1.9 1.9 0 0 1 13.3 7c.4 0 .8-.2 1.2-.5-.1.5-.4.8-.8 1 .3 0 .7 0 1-.2-.2.4-.5.7-.9 1z"/>
    </symbol>
    <symbol id="icon-close" viewBox="0 0 512 512">
      <path d="M405 136.798L375.202 107 256 226.202 136.798 107 107 136.798 226.202 256 107 375.202 136.798 405 256 285.798 375.202 405 405 375.202 285.798 256z"/>
    </symbol>
    <symbol id="icon-calendar" viewBox="0 0 26 28">
      <path d="M2 26h4.5v-4.5h-4.5v4.5zM7.5 26h5v-4.5h-5v4.5zM2 20.5h4.5v-5h-4.5v5zM7.5 20.5h5v-5h-5v5zM2 14.5h4.5v-4.5h-4.5v4.5zM13.5 26h5v-4.5h-5v4.5zM7.5 14.5h5v-4.5h-5v4.5zM19.5 26h4.5v-4.5h-4.5v4.5zM13.5 20.5h5v-5h-5v5zM8 7v-4.5c0-0.266-0.234-0.5-0.5-0.5h-1c-0.266 0-0.5 0.234-0.5 0.5v4.5c0 0.266 0.234 0.5 0.5 0.5h1c0.266 0 0.5-0.234 0.5-0.5zM19.5 20.5h4.5v-5h-4.5v5zM13.5 14.5h5v-4.5h-5v4.5zM19.5 14.5h4.5v-4.5h-4.5v4.5zM20 7v-4.5c0-0.266-0.234-0.5-0.5-0.5h-1c-0.266 0-0.5 0.234-0.5 0.5v4.5c0 0.266 0.234 0.5 0.5 0.5h1c0.266 0 0.5-0.234 0.5-0.5zM26 6v20c0 1.094-0.906 2-2 2h-22c-1.094 0-2-0.906-2-2v-20c0-1.094 0.906-2 2-2h2v-1.5c0-1.375 1.125-2.5 2.5-2.5h1c1.375 0 2.5 1.125 2.5 2.5v1.5h6v-1.5c0-1.375 1.125-2.5 2.5-2.5h1c1.375 0 2.5 1.125 2.5 2.5v1.5h2c1.094 0 2 0.906 2 2z"></path>
    </symbol>
  </defs>
</svg>
